<?xml version="1.0" encoding="utf-8"?>
<!-- Generator: Adobe Illustrator 23.0.4, SVG Export Plug-In . SVG Version: 6.00 Build 0)  -->
<svg version="1.1" id="Layer_1" xmlns="http://www.w3.org/2000/svg" xmlns:xlink="http://www.w3.org/1999/xlink" x="0px" y="0px"
	 viewBox="70.9 0 708.7 708.7" style="enable-background:new 70.9 0 708.7 708.7;" xml:space="preserve">
<style type="text/css">
	.st0{fill:#C30E23;}
</style>
<g>
	<path class="st0" d="M425.2,0C229.5,0,70.9,158.7,70.9,354.3c0,195.7,158.7,354.3,354.3,354.3c195.7,0,354.3-158.6,354.3-354.3
		C779.5,158.7,620.9,0,425.2,0z M425.2,642.2c-159,0-287.9-128.9-287.9-287.9S266.2,66.4,425.2,66.4s287.9,128.9,287.9,287.9
		S584.2,642.2,425.2,642.2z M425.2,155.4c-25.4,0-44.6,13.2-44.6,34.6v196.2c0,21.4,19.2,34.6,44.6,34.6c24.8,0,44.6-13.8,44.6-34.6
		V190C469.8,169.1,450,155.4,425.2,155.4z M425.2,465.1c-24.4,0-44.2,19.8-44.2,44.2c0,24.4,19.8,44.2,44.2,44.2
		c24.4,0,44.2-19.8,44.2-44.2C469.4,484.9,449.6,465.1,425.2,465.1z"/>
</g>
</svg>
